<?xml version="1.0" encoding="UTF-8"?>
<!DOCTYPE svg PUBLIC "-//W3C//DTD SVG 1.1//EN" "http://www.w3.org/Graphics/SVG/1.1/DTD/svg11.dtd">
<!-- Creator: CorelDRAW 2019 (64-Bit) -->
<svg xmlns="http://www.w3.org/2000/svg" xml:space="none" width="250" height="150" version="1.1" style="shape-rendering:geometricPrecision; text-rendering:geometricPrecision; image-rendering:optimizeQuality; fill-rule:evenodd; clip-rule:evenodd"
viewBox="3600 0 1000 5000"
 xmlns:xlink="http://www.w3.org/1999/xlink"
 xmlns:xodm="http://www.corel.com/coreldraw/odm/2003">
 <defs>
  <style type="text/css">
   <![CDATA[
    .fil1 {fill:#FEFEFE}
    .fil2 {fill:#221E1F}
    .fil0 {fill:#EC2127}
    .fil3 {fill:#221E1F;fill-rule:nonzero}
   ]]>
  </style>
 </defs>
 <g id="Layer_x0020_1">
  <metadata id="CorelCorpID_0Corel-Layer"/>
  <path class="fil0" d="M540.02 0c298.25,0 540.02,241.78 540.02,540.03 0,298.24 -241.77,540.02 -540.02,540.02 -298.24,0 -540.02,-241.78 -540.02,-540.02 0,-298.25 241.78,-540.03 540.02,-540.03z"/>
  <path class="fil1" d="M42.51 750.38c-27.37,-64.65 -42.51,-135.73 -42.51,-210.35 0,-89.83 21.96,-174.51 60.76,-249.03 195.02,-28.37 375,52.02 649.6,45.35 69.38,-1.69 159.59,-14.43 224.6,-11.02 -17.35,34.74 -44.38,56.29 -73.58,77.63 -106.78,78.04 -193.57,118.37 -344.49,107.2 -89.32,-6.6 -180.13,-21.85 -268.85,-33.24 -45.77,-5.87 -93.94,-11.97 -138.1,2.41 -31.54,10.26 -77.03,44.85 -84.47,64.31 137.21,61.94 327.59,68.07 475.5,28.1 66.11,-17.86 88.48,-34.66 135.7,-50.69 -3.76,31.24 -62.59,104.12 -89.99,125.2 -24.3,18.7 -32.63,27.78 -62.46,46.85 -122.9,78.58 -294.03,93.01 -441.36,57.31l-0.35 -0.03z"/>
  <path class="fil2" d="M3413.14 631.21c-121.29,0 -131.34,-162.02 -47.56,-200.74 110.88,-51.25 184.16,84.64 117.54,168.6 -14.91,18.8 -47.85,32.14 -69.98,32.14zm-204.26 -455.93l0 543.47 102.13 0 0 -43.77c20.62,13.82 45.93,51.07 116.71,51.07 108.46,0 186.03,-86.92 186.03,-182.38 0,-62.7 -7.02,-116.91 -50.07,-161.48 -69.76,-72.23 -185.44,-79.45 -249.03,-6.3l0 -211.55 -94.83 0c-8.41,0 -10.94,2.53 -10.94,10.94z"/>
  <path class="fil2" d="M1450.79 529.08c0,-39.05 12.38,-67.46 38.93,-88.73 6.72,-5.38 8.06,-6.33 15.66,-9.87 114.9,-53.46 183.38,94.14 117.87,168.93 -52.29,59.7 -172.46,31.99 -172.46,-70.33zm-102.13 -346.51l0 536.18 102.13 0 0 -43.77c9.53,6.38 12.4,11.7 21.26,18.86 107.85,87.25 281.48,-10.26 281.48,-142.87 0,-62.52 -2.87,-119.92 -50.07,-168.78 -53.16,-55.04 -134.23,-74.07 -201.66,-42.83 -17.56,8.13 -31.17,22.04 -47.36,32.88l0 -200.61 -94.84 0c-8.4,0 -10.94,2.54 -10.94,10.94z"/>
  <path class="fil2" d="M3781.53 525.44c0,-28.33 12.75,-58.85 27.13,-75 46.58,-52.3 166.19,-44.83 166.19,82.29 0,29.38 -11.51,52.85 -26.31,68.53 -53.88,57.08 -167.01,30.52 -167.01,-75.82zm-105.78 -14.59c0,65.55 9.84,116.95 51.87,159.68 47.68,48.46 130.89,72.96 199.87,40.98 24.43,-11.32 29.1,-24.3 47.36,-36.53l0 43.77 102.13 0 0 -386.63 -105.78 0 0 40.12c-8.86,-5.93 -10.69,-9.91 -19.68,-16.79 -109.2,-83.58 -275.77,9.91 -275.77,155.4z"/>
  <path class="fil2" d="M1921.31 525.44c0,-134.49 193.32,-150.17 193.32,7.29 0,29.38 -11.5,52.85 -26.3,68.53 -6.86,7.27 -17.45,15.57 -27.24,20.18 -63.5,29.89 -139.78,-11.93 -139.78,-96zm-105.77 -7.3c0,182.89 154.43,238.48 251.73,193.37 24.43,-11.32 29.1,-24.3 47.36,-36.53l0 43.77 102.13 0 0 -386.63 -105.78 0 0 40.12c-29.91,-20.03 -44.62,-47.42 -116.72,-47.42 -103.58,0 -178.72,91.07 -178.72,193.32z"/>
  <path class="fil2" d="M2763.88 182.57l0 536.18 105.78 0 0 -164.13c29.99,20.08 130.34,159.74 153.45,163.88 19.5,3.49 84.93,0.25 109.17,0.25 -8.07,-15.24 -8.77,-12.82 -18.78,-24.99l-63.04 -79.21c-14.36,-18.27 -26.27,-32.29 -40.62,-50.57 -14.3,-18.2 -29.66,-35.15 -41.7,-53.13l80.25 -87.54c15.46,-20.27 66.67,-70.92 80.24,-91.19l-124.01 0c-4.53,8.55 -119.52,142.85 -134.96,153.19l0 -313.68 -94.83 0c-8.41,0 -10.95,2.54 -10.95,10.94z"/>
  <path class="fil2" d="M5120.16 419.66l21.88 0c38.92,0 61.81,29.85 69.3,62.01l-164.13 0c7.15,-30.71 35.34,-62.01 72.95,-62.01zm-182.38 87.54c0,64.19 6.47,118.29 59.22,166.93 62.92,58.02 158.86,65.68 237.36,31.17 27,-11.87 52.63,-32.64 68.17,-55.85l-65.65 -62.01c-22.24,14.9 -37.19,43.77 -94.84,43.77 -45,0 -91.51,-32.99 -94.83,-72.95l269.91 0c0,-71.49 2.21,-123.5 -55.58,-181.5 -61.69,-61.91 -174.93,-68.95 -243.59,-19.18 -27.95,20.26 -48.87,42.55 -62.56,76.04 -8.42,20.62 -17.61,43.4 -17.61,73.58z"/>
  <path class="fil2" d="M5517.12 376.5c0,-1.23 2.67,-2.69 2.75,-2.12l1.51 -42.26 -109.42 0 0 386.63c133.15,0 109.42,21.76 109.42,-87.54 0,-32.82 0.07,-65.66 0,-98.48 -0.09,-37.16 1.47,-59.4 17.58,-80.9 36.5,-48.69 107.09,-34.46 124.77,-6.73 23.68,37.13 14.49,215.71 14.49,273.65l105.78 0 0 -229.79c0,-44.37 -10.72,-93.67 -31.85,-117.69 -66.52,-75.63 -192.39,-49.04 -230.77,8.27l-4.26 -3.04z"/>
  <path class="fil2" d="M4273.94 379.54l0 -47.42 -105.78 0 0 386.63 105.78 0c0,-63.05 -10.53,-225.6 19.04,-265.46 36.07,-48.62 110.52,-40.54 128.86,-2.81 19.79,40.72 12.59,213.09 12.59,268.27l105.78 0 0 -218.85c0,-104.06 -34.55,-175.08 -145.9,-175.08 -71.11,0 -97.05,39.1 -120.37,54.72z"/>
  <path class="fil2" d="M2421.02 379.54l0 -47.42 -105.78 0 0 386.63 105.78 0 0 -204.26c0,-115.96 156.84,-130.04 156.84,-21.88l0 226.14 105.78 0 0 -255.32c0,-125.74 -121.78,-166.33 -212.89,-121.7 -27.32,13.38 -30.23,24.75 -49.73,37.81z"/>
  <path class="fil2" d="M4660.57 226.34l0 105.78 -58.36 0 0 87.54 58.36 0 0 186.02c0,132.37 126.27,144.25 233.44,87.54 -6.76,-29.05 -19.11,-56.33 -25.53,-83.89 -30.23,7.04 -102.13,49.69 -102.13,-21.89l0 -167.78 105.78 0 0 -87.54 -105.78 0 0 -124.02 -105.78 18.24z"/>
  <path class="fil3" d="M1370.39 887.79l45.27 0c8.98,0 15.65,0.37 20.05,1.11 4.43,0.77 8.35,2.32 11.83,4.66 3.48,2.38 6.38,5.51 8.7,9.44 2.32,3.93 3.47,8.35 3.47,13.23 0,5.27 -1.42,10.14 -4.26,14.54 -2.85,4.43 -6.73,7.73 -11.6,9.94 6.88,2.02 12.15,5.45 15.86,10.3 3.69,4.85 5.54,10.54 5.54,17.1 0,5.17 -1.19,10.17 -3.59,15.05 -2.39,4.87 -5.66,8.77 -9.83,11.7 -4.13,2.9 -9.24,4.69 -15.33,5.37 -3.8,0.4 -12.99,0.66 -27.56,0.77l-38.55 0 0 -113.21zm22.92 18.82l0 26.09 14.97 0c8.88,0 14.41,-0.14 16.57,-0.4 3.9,-0.45 6.99,-1.79 9.23,-4.03 2.23,-2.24 3.34,-5.17 3.34,-8.8 0,-3.51 -0.97,-6.33 -2.9,-8.51 -1.92,-2.19 -4.79,-3.51 -8.59,-3.96 -2.26,-0.26 -8.77,-0.39 -19.5,-0.39l-13.12 0zm0 44.9l0 30.36 21.19 0c8.22,0 13.46,-0.24 15.68,-0.69 3.39,-0.63 6.16,-2.13 8.3,-4.53 2.13,-2.42 3.21,-5.61 3.21,-9.65 0,-3.42 -0.82,-6.29 -2.48,-8.66 -1.63,-2.37 -4.03,-4.12 -7.14,-5.2 -3.11,-1.08 -9.88,-1.63 -20.29,-1.63l-18.47 0zm241.11 49.49l-24.69 0 -9.78 -25.77 -45.4 0 -9.4 25.77 -24.25 0 43.95 -113.21 24.22 0 45.35 113.21zm-41.9 -44.9l-15.73 -41.9 -15.28 41.9 31.01 0zm101.98 44.9l0 -113.21 22.19 0 46.59 75.87 0 -75.87 21.18 0 0 113.21 -22.9 0 -45.87 -74.42 0 74.42 -21.19 0zm162.38 0l0 -113.21 22.92 0 0 50.15 46.19 -50.15 30.73 0 -42.72 44.09 44.93 69.12 -29.56 0 -31.15 -53.15 -18.42 18.92 0 34.23 -22.92 0z"/>
  <path class="fil3" d="M2085.45 1001l0 -113.21 36.65 0c13.89,0 22.93,0.56 27.15,1.69 6.48,1.71 11.91,5.4 16.28,11.09 4.37,5.7 6.56,13.05 6.56,22.06 0,6.96 -1.26,12.78 -3.77,17.52 -2.53,4.75 -5.72,8.46 -9.59,11.18 -3.87,2.68 -7.82,4.47 -11.83,5.34 -5.46,1.09 -13.33,1.64 -23.66,1.64l-14.86 0 0 42.69 -22.93 0zm22.93 -94.07l0 32.25 12.46 0c8.98,0 14.97,-0.61 18,-1.79 3.03,-1.19 5.4,-3.03 7.11,-5.59 1.71,-2.53 2.58,-5.46 2.58,-8.83 0,-4.13 -1.21,-7.53 -3.6,-10.22 -2.43,-2.69 -5.46,-4.38 -9.17,-5.06 -2.72,-0.5 -8.18,-0.76 -16.4,-0.76l-10.98 0zm126.46 94.07l0 -113.21 83.79 0 0 19.14 -60.87 0 0 25.14 56.6 0 0 19.13 -56.6 0 0 30.67 63.08 0 0 19.13 -86 0zm149.06 0l0 -113.21 34.34 0 20.29 77.21 20.05 -77.21 34.42 0 0 113.21 -21.19 0 -0.08 -89.12 -22.32 89.12 -22.03 0 -22.21 -89.12 -0.08 89.12 -21.19 0zm175.95 -113.21l45.27 0c8.99,0 15.65,0.37 20.05,1.11 4.43,0.77 8.36,2.32 11.83,4.66 3.48,2.38 6.38,5.51 8.7,9.44 2.32,3.93 3.48,8.35 3.48,13.23 0,5.27 -1.42,10.14 -4.27,14.54 -2.85,4.43 -6.72,7.73 -11.6,9.94 6.88,2.02 12.15,5.45 15.87,10.3 3.69,4.85 5.53,10.54 5.53,17.1 0,5.17 -1.18,10.17 -3.58,15.05 -2.4,4.87 -5.67,8.77 -9.83,11.7 -4.14,2.9 -9.25,4.69 -15.34,5.37 -3.79,0.4 -12.99,0.66 -27.56,0.77l-38.55 0 0 -113.21zm22.93 18.82l0 26.09 14.96 0c8.88,0 14.41,-0.14 16.58,-0.4 3.9,-0.45 6.98,-1.79 9.22,-4.03 2.24,-2.24 3.34,-5.17 3.34,-8.8 0,-3.51 -0.97,-6.33 -2.89,-8.51 -1.93,-2.19 -4.8,-3.51 -8.59,-3.96 -2.27,-0.26 -8.78,-0.39 -19.5,-0.39l-13.12 0zm0 44.9l0 30.36 21.18 0c8.22,0 13.47,-0.24 15.68,-0.69 3.4,-0.63 6.17,-2.13 8.3,-4.53 2.14,-2.42 3.22,-5.61 3.22,-9.65 0,-3.42 -0.82,-6.29 -2.48,-8.66 -1.64,-2.37 -4.03,-4.12 -7.14,-5.2 -3.11,-1.08 -9.88,-1.63 -20.29,-1.63l-18.47 0zm237.15 49.49l-24.69 0 -9.78 -25.77 -45.4 0 -9.4 25.77 -24.25 0 43.96 -113.21 24.21 0 45.35 113.21zm-41.89 -44.9l-15.74 -41.9 -15.28 41.9 31.02 0zm98.02 44.9l0 -113.21 22.19 0 46.59 75.87 0 -75.87 21.18 0 0 113.21 -22.89 0 -45.88 -74.42 0 74.42 -21.19 0zm210.76 -41.58l0 -19.14 49.17 0 0 45.17c-4.77,4.66 -11.7,8.75 -20.79,12.31 -9.07,3.53 -18.26,5.29 -27.59,5.29 -11.83,0 -22.14,-2.47 -30.94,-7.45 -8.78,-4.98 -15.39,-12.13 -19.82,-21.37 -4.42,-9.25 -6.64,-19.34 -6.64,-30.23 0,-11.8 2.48,-22.29 7.41,-31.49 4.95,-9.17 12.17,-16.23 21.68,-21.13 7.28,-3.77 16.29,-5.64 27.1,-5.64 14.04,0 25.03,2.95 32.93,8.85 7.88,5.93 12.97,14.07 15.24,24.51l-22.77 4.27c-1.58,-5.56 -4.59,-9.96 -8.99,-13.2 -4.37,-3.22 -9.85,-4.83 -16.44,-4.83 -9.96,0 -17.89,3.16 -23.77,9.52 -5.87,6.35 -8.83,15.76 -8.83,28.22 0,13.46 2.98,23.56 8.94,30.28 5.98,6.72 13.78,10.09 23.45,10.09 4.77,0 9.56,-0.95 14.36,-2.82 4.82,-1.87 8.93,-4.16 12.38,-6.85l0 -14.36 -26.08 0zm114.26 -71.63l22.92 0 0 61.35c0,9.75 0.29,16.05 0.84,18.92 0.98,4.64 3.27,8.38 6.91,11.17 3.66,2.82 8.64,4.22 14.97,4.22 6.4,0 11.25,-1.32 14.52,-3.98 3.26,-2.66 5.21,-5.9 5.87,-9.78 0.66,-3.87 1,-10.27 1,-19.23l0 -62.67 22.93 0 0 59.53c0,13.6 -0.61,23.22 -1.85,28.83 -1.23,5.61 -3.5,10.36 -6.82,14.23 -3.29,3.87 -7.72,6.93 -13.26,9.22 -5.56,2.29 -12.78,3.45 -21.71,3.45 -10.78,0 -18.94,-1.23 -24.51,-3.74 -5.56,-2.5 -9.96,-5.74 -13.2,-9.75 -3.24,-4 -5.35,-8.17 -6.37,-12.57 -1.51,-6.48 -2.24,-16.07 -2.24,-28.75l0 -60.45zm158.1 113.21l0 -113.21 22.19 0 46.59 75.87 0 -75.87 21.18 0 0 113.21 -22.9 0 -45.87 -74.42 0 74.42 -21.19 0zm260.09 0l-24.7 0 -9.77 -25.77 -45.4 0 -9.41 25.77 -24.24 0 43.95 -113.21 24.22 0 45.35 113.21zm-41.9 -44.9l-15.73 -41.9 -15.29 41.9 31.02 0zm98.03 44.9l0 -113.21 22.18 0 46.59 75.87 0 -75.87 21.18 0 0 113.21 -22.89 0 -45.88 -74.42 0 74.42 -21.18 0z"/>
  <path class="fil3" d="M3912.84 887.79l41.68 0c9.41,0 16.58,0.72 21.51,2.17 6.61,1.94 12.3,5.42 17.02,10.43 4.74,4.98 8.33,11.09 10.81,18.34 2.45,7.22 3.68,16.15 3.68,26.75 0,9.32 -1.15,17.34 -3.47,24.08 -2.83,8.25 -6.85,14.91 -12.1,20 -3.95,3.87 -9.3,6.88 -16.02,9.04 -5.03,1.61 -11.75,2.4 -20.19,2.4l-42.92 0 0 -113.21zm22.92 19.14l0 74.94 17 0c6.35,0 10.94,-0.37 13.76,-1.08 3.71,-0.93 6.77,-2.51 9.19,-4.72 2.45,-2.21 4.43,-5.85 5.96,-10.91 1.55,-5.06 2.32,-11.99 2.32,-20.74 0,-8.75 -0.77,-15.44 -2.32,-20.13 -1.53,-4.69 -3.69,-8.33 -6.46,-10.96 -2.77,-2.61 -6.27,-4.4 -10.54,-5.32 -3.16,-0.72 -9.41,-1.08 -18.68,-1.08l-10.23 0zm236.72 94.07l-24.69 0 -9.77 -25.77 -45.41 0 -9.4 25.77 -24.25 0 43.96 -113.21 24.22 0 45.34 113.21zm-41.89 -44.9l-15.74 -41.9 -15.28 41.9 31.02 0zm97.58 44.9l0 -113.21 83.8 0 0 19.14 -60.87 0 0 25.14 56.6 0 0 19.13 -56.6 0 0 30.67 63.08 0 0 19.13 -86.01 0zm148.95 0l0 -113.21 48.14 0c12.1,0 20.9,1.03 26.38,3.06 5.51,2.03 9.88,5.64 13.18,10.83 3.29,5.22 4.95,11.15 4.95,17.84 0,8.51 -2.48,15.52 -7.46,21.06 -4.98,5.53 -12.41,9.01 -22.32,10.46 4.93,2.87 8.99,6.03 12.18,9.48 3.21,3.46 7.53,9.59 12.96,18.4l13.81 22.08 -27.33 0 -16.39 -24.72c-5.87,-8.77 -9.9,-14.31 -12.09,-16.6 -2.16,-2.27 -4.45,-3.85 -6.88,-4.69 -2.45,-0.85 -6.3,-1.27 -11.57,-1.27l-4.63 0 0 47.28 -22.93 0zm22.93 -65.3l16.91 0c10.96,0 17.79,-0.47 20.53,-1.4 2.71,-0.92 4.87,-2.53 6.4,-4.79 1.56,-2.27 2.32,-5.11 2.32,-8.51 0,-3.82 -1.03,-6.88 -3.06,-9.25 -2.02,-2.35 -4.89,-3.82 -8.59,-4.43 -1.87,-0.26 -7.43,-0.39 -16.67,-0.39l-17.84 0 0 28.77zm236.71 65.3l-24.69 0 -9.77 -25.77 -45.4 0 -9.41 25.77 -24.24 0 43.95 -113.21 24.22 0 45.34 113.21zm-41.89 -44.9l-15.73 -41.9 -15.29 41.9 31.02 0zm97.59 44.9l0 -113.21 22.92 0 0 44.59 44.58 0 0 -44.59 22.93 0 0 113.21 -22.93 0 0 -49.49 -44.58 0 0 49.49 -22.92 0z"/>
  <path class="fil3" d="M4923.15 887.79l45.27 0c8.98,0 15.65,0.37 20.05,1.11 4.43,0.77 8.35,2.32 11.83,4.66 3.48,2.38 6.38,5.51 8.7,9.44 2.32,3.93 3.48,8.35 3.48,13.23 0,5.27 -1.43,10.14 -4.27,14.54 -2.85,4.43 -6.72,7.73 -11.6,9.94 6.88,2.02 12.15,5.45 15.87,10.3 3.68,4.85 5.53,10.54 5.53,17.1 0,5.17 -1.19,10.17 -3.58,15.05 -2.4,4.87 -5.67,8.77 -9.83,11.7 -4.14,2.9 -9.25,4.69 -15.34,5.37 -3.79,0.4 -12.99,0.66 -27.56,0.77l-38.55 0 0 -113.21zm22.92 18.82l0 26.09 14.97 0c8.88,0 14.41,-0.14 16.57,-0.4 3.9,-0.45 6.99,-1.79 9.23,-4.03 2.24,-2.24 3.34,-5.17 3.34,-8.8 0,-3.51 -0.97,-6.33 -2.9,-8.51 -1.92,-2.19 -4.79,-3.51 -8.58,-3.96 -2.27,-0.26 -8.78,-0.39 -19.5,-0.39l-13.13 0zm0 44.9l0 30.36 21.19 0c8.22,0 13.46,-0.24 15.68,-0.69 3.4,-0.63 6.16,-2.13 8.3,-4.53 2.13,-2.42 3.21,-5.61 3.21,-9.65 0,-3.42 -0.81,-6.29 -2.47,-8.66 -1.64,-2.37 -4.04,-4.12 -7.15,-5.2 -3.11,-1.08 -9.88,-1.63 -20.29,-1.63l-18.47 0zm238.48 49.49l-24.69 0 -9.78 -25.77 -45.4 0 -9.41 25.77 -24.24 0 43.95 -113.21 24.22 0 45.35 113.21zm-41.9 -44.9l-15.73 -41.9 -15.29 41.9 31.02 0zm99.34 44.9l0 -113.21 22.19 0 46.59 75.87 0 -75.87 21.18 0 0 113.21 -22.89 0 -45.88 -74.42 0 74.42 -21.19 0zm184.88 0l0 -94.07 -33.52 0 0 -19.14 89.8 0 0 19.14 -33.36 0 0 94.07 -22.92 0zm116.36 0l0 -113.21 83.8 0 0 19.14 -60.87 0 0 25.14 56.6 0 0 19.13 -56.6 0 0 30.67 63.08 0 0 19.13 -86.01 0zm150.7 0l0 -113.21 22.19 0 46.59 75.87 0 -75.87 21.18 0 0 113.21 -22.9 0 -45.87 -74.42 0 74.42 -21.19 0z"/>
 </g>
</svg>
